<svg width="58" height="58" viewBox="0 0 58 58" fill="none" xmlns="http://www.w3.org/2000/svg">
<path d="M6.42459 17.7252C5.4521 18.215 4.83715 19.2095 4.83346 20.2984V27.0651C4.83346 28.1328 5.69904 28.9984 6.76679 28.9984V55.0984C6.76679 56.7 8.06517 57.9984 9.66679 57.9984H48.3335C49.9351 57.9984 51.2335 56.7 51.2335 55.0984V28.9984C52.3012 28.9984 53.1668 28.1328 53.1668 27.0651V20.2984C53.1631 19.2095 52.5482 18.215 51.5757 17.7252C55.597 15.147 57.7942 10.334 57.917 10.0576C58.0499 9.75851 58.0224 9.41257 57.8441 9.13822C57.6657 8.86388 57.3607 8.69838 57.0335 8.69842H53.1668V4.83175C53.167 4.4564 52.9498 4.11488 52.6099 3.95578C52.2699 3.79668 51.8686 3.84875 51.5805 4.08935L48.3528 6.78442C46.881 4.10025 44.6566 1.90483 41.9535 0.468218C41.3384 0.128715 40.6405 -0.0316909 39.9389 0.00518444C33.4642 0.410218 30.3631 5.64278 29.0001 9.18175C27.6313 5.64665 24.5303 0.427618 18.0613 0.0235511C17.3601 -0.015947 16.6619 0.142849 16.0468 0.481751C13.3484 1.91586 11.1268 4.10584 9.65423 6.78345L6.41879 4.08838C6.13054 3.84829 5.72939 3.79665 5.38973 3.95592C5.05007 4.11519 4.83322 4.4566 4.83346 4.83175V8.69842H0.966792C0.639573 8.69838 0.334545 8.86388 0.1562 9.13822C-0.0221443 9.41257 -0.0495923 9.75851 0.0832588 10.0576C0.206026 10.334 2.40326 15.147 6.42459 17.7252ZM22.2335 19.3318V27.0651H6.76679V20.2984C6.76679 19.7645 7.19958 19.3318 7.73346 19.3318H22.2335ZM24.0991 13.6439C21.8524 11.7087 20.2871 9.10267 19.6341 6.21022C22.6878 7.54808 24.2838 11.1915 24.8618 12.8135C24.5762 13.0597 24.3202 13.3384 24.0991 13.6439ZM25.1335 16.4318C25.1335 14.8301 26.4318 13.5318 28.0335 13.5318H29.9668C31.5684 13.5318 32.8668 14.8301 32.8668 16.4318V17.3984H25.1335V16.4318ZM33.8335 27.0651H24.1668V19.3318H33.8335V27.0651ZM33.1384 12.8135C33.7184 11.1915 35.3134 7.54808 38.3662 6.21022C37.7137 9.10288 36.1483 11.709 33.9011 13.6439C33.68 13.3384 33.424 13.0597 33.1384 12.8135ZM8.70013 55.0984V28.9984H24.1668V56.0651H9.66679C9.13292 56.0651 8.70013 55.6323 8.70013 55.0984ZM26.1001 56.0651V28.9984H31.9001V56.0651H26.1001ZM49.3001 55.0984C49.3001 55.6323 48.8673 56.0651 48.3335 56.0651H33.8335V28.9984H49.3001V55.0984ZM50.2668 19.3318C50.8007 19.3318 51.2335 19.7645 51.2335 20.2984V27.0651H35.7668V19.3318H50.2668ZM52.2001 10.6318H55.4327C54.089 12.945 50.9145 17.3984 46.4001 17.3984H44.2348C45.9031 16.036 47.3486 14.4216 48.5191 12.6134C49.2791 11.4468 49.4953 10.0078 49.1116 8.66942L51.2335 6.89848V9.66508C51.2335 10.199 51.6663 10.6318 52.2001 10.6318ZM40.0598 1.93175C40.4001 1.91682 40.7377 1.99788 41.0342 2.16568C42.459 2.93902 45.9139 5.14785 47.2131 9.04352C47.5007 9.88477 47.3856 10.8115 46.9009 11.5569C45.8201 13.2089 43.5697 16.1331 40.5325 17.3984H34.8001V16.4318C34.8 16.11 34.7676 15.7891 34.7035 15.4738C38.6668 12.6705 40.0414 7.79072 40.4551 5.74525C40.5562 5.25263 40.391 4.74313 40.0201 4.40352C39.646 4.05359 39.1155 3.92619 38.6233 4.06808C34.4193 5.25225 32.2926 9.53362 31.4284 11.8498C31.0306 11.7206 30.6175 11.6442 30.1998 11.6226C30.9141 8.94975 33.3443 2.35515 40.0598 1.93175ZM10.7872 9.05705C12.0835 5.16622 15.5403 2.95642 16.9651 2.18695C17.2625 2.02065 17.6 1.9397 17.9405 1.95302C24.6501 2.37255 27.0813 8.94782 27.8005 11.6197C27.3834 11.6414 26.971 11.7178 26.5738 11.8469C25.7096 9.52685 23.5829 5.24935 19.3789 4.06518C18.8867 3.92488 18.3569 4.05209 17.9821 4.40062C17.6122 4.74084 17.4482 5.25025 17.55 5.74235C17.9589 7.79072 19.3335 12.6734 23.2968 15.4738C23.2326 15.7891 23.2002 16.11 23.2001 16.4318V17.3984H17.4678C14.4305 16.135 12.1782 13.2137 11.0994 11.5627C10.6156 10.8199 10.5005 9.89583 10.7872 9.05705ZM5.80013 10.6318C6.334 10.6318 6.76679 10.199 6.76679 9.66508V6.89462L8.89346 8.66555C8.50515 10.0066 8.72007 11.4503 9.48216 12.6202C10.6516 14.426 12.0958 16.0381 13.7626 17.3984H11.6001C7.09836 17.3984 3.91899 12.946 2.57049 10.6318H5.80013Z" fill="#FF9D43"/>
<path d="M11.6001 30.9309C11.0662 30.9309 10.6334 31.3637 10.6334 31.8976V33.8309C10.6334 34.3648 11.0662 34.7976 11.6001 34.7976C12.1339 34.7976 12.5667 34.3648 12.5667 33.8309V31.8976C12.5667 31.3637 12.1339 30.9309 11.6001 30.9309Z" fill="#FF9D43"/>
<path d="M11.6001 36.731C11.0662 36.731 10.6334 37.1637 10.6334 37.6976V53.1643C10.6334 53.6982 11.0662 54.131 11.6001 54.131C12.1339 54.131 12.5667 53.6982 12.5667 53.1643V37.6976C12.5667 37.1637 12.1339 36.731 11.6001 36.731Z" fill="#FF9D43"/>
<path d="M46.4003 34.7976C46.9342 34.7976 47.367 34.3648 47.367 33.8309V31.8976C47.367 31.3637 46.9342 30.9309 46.4003 30.9309C45.8664 30.9309 45.4337 31.3637 45.4337 31.8976V33.8309C45.4337 34.3648 45.8664 34.7976 46.4003 34.7976Z" fill="#FF9D43"/>
<path d="M46.4003 54.131C46.9342 54.131 47.367 53.6982 47.367 53.1643V37.6976C47.367 37.1637 46.9342 36.731 46.4003 36.731C45.8664 36.731 45.4337 37.1637 45.4337 37.6976V53.1643C45.4337 53.6982 45.8664 54.131 46.4003 54.131Z" fill="#FF9D43"/>
</svg>
