<svg width="17" height="17" viewBox="0 0 17 17" fill="none" xmlns="http://www.w3.org/2000/svg">
<path d="M8.07435 5.8394C6.59618 5.8394 5.38988 7.0457 5.38988 8.52388C5.38988 10.0021 6.59618 11.2084 8.07435 11.2084C9.55253 11.2084 10.7588 10.0021 10.7588 8.52388C10.7588 7.0457 9.55253 5.8394 8.07435 5.8394ZM16.1258 8.52388C16.1258 7.41223 16.1358 6.31064 16.0734 5.20101C16.011 3.91214 15.717 2.76826 14.7745 1.82578C13.83 0.881276 12.6881 0.589266 11.3992 0.526836C10.2876 0.464407 9.186 0.474476 8.07637 0.474476C6.96472 0.474476 5.86313 0.464407 4.7535 0.526836C3.46463 0.589266 2.32075 0.88329 1.37827 1.82578C0.433766 2.77028 0.141756 3.91214 0.0793265 5.20101C0.0168969 6.31266 0.0269662 7.41424 0.0269662 8.52388C0.0269662 9.63351 0.0168969 10.7371 0.0793265 11.8467C0.141756 13.1356 0.43578 14.2795 1.37827 15.222C2.32277 16.1665 3.46463 16.4585 4.7535 16.5209C5.86515 16.5833 6.96673 16.5733 8.07637 16.5733C9.18802 16.5733 10.2896 16.5833 11.3992 16.5209C12.6881 16.4585 13.832 16.1645 14.7745 15.222C15.719 14.2775 16.011 13.1356 16.0734 11.8467C16.1379 10.7371 16.1258 9.63553 16.1258 8.52388ZM8.07435 12.6543C5.78862 12.6543 3.94393 10.8096 3.94393 8.52388C3.94393 6.23815 5.78862 4.39345 8.07435 4.39345C10.3601 4.39345 12.2048 6.23815 12.2048 8.52388C12.2048 10.8096 10.3601 12.6543 8.07435 12.6543ZM12.3739 5.18892C11.8403 5.18892 11.4093 4.75796 11.4093 4.22428C11.4093 3.69061 11.8403 3.25965 12.3739 3.25965C12.9076 3.25965 13.3386 3.69061 13.3386 4.22428C13.3387 4.35101 13.3139 4.47652 13.2655 4.59362C13.2171 4.71073 13.146 4.81714 13.0564 4.90674C12.9668 4.99635 12.8604 5.0674 12.7433 5.11582C12.6262 5.16424 12.5007 5.18908 12.3739 5.18892Z" fill="#555555"/>
</svg>
